<?xml version="1.0" encoding="UTF-8" standalone="no"?>
<!-- Created with Inkscape (http://www.inkscape.org/) -->

<svg
   width="916.10632"
   height="313.52356"
   viewBox="0 0 916.10632 313.52356"
   version="1.1"
   id="svg5"
   xml:space="preserve"
   xmlns="http://www.w3.org/2000/svg"
   xmlns:svg="http://www.w3.org/2000/svg"><defs
     id="defs2" /><g
     id="layer1"
     transform="translate(-41.948151,-1026.7805)"><g
       id="g72449"
       transform="matrix(7.4478014,0,0,7.5893306,-45.569432,211.54623)"
       style="display:inline;stroke-width:0.177347"><g
         id="g73409"
         transform="matrix(1.226973,0,0,1.226973,-12.212523,92.789756)"
         style="display:inline;stroke:#000000;stroke-width:0.325215;stroke-linecap:round"><g
           fill="#cbd561"
           fill-opacity="1"
           id="g73367"
           style="fill:#cbd51b;stroke-width:0.273949"
           transform="matrix(1.1825467,0,0,1.1917426,-7.9237496,-9.5182363)"><g
             transform="translate(37.405473,45.169451)"
             id="g73365"><g
               id="g73363"><g
                 id="path73361"><path
                   style="color:#000000;stroke:none;-inkscape-stroke:none"
                   d="m 6.3125,-0.484375 c -1.5,-0.40625 -2.746094,-1.09375 -3.734375,-2.0625 -0.980469,-0.96875 -1.71875,-2.101563 -2.21875,-3.40625 -0.5,-1.300781 -0.75,-2.65625 -0.75,-4.0625 -0.007813,-1.414063 0.21875,-2.769531 0.6875,-4.0625 0.46875,-1.300781 1.15625,-2.429687 2.0625,-3.390625 0.90625,-0.957031 2.039063,-1.628906 3.40625,-2.015625 1.375,-0.394531 2.953125,-0.378906 4.734375,0.04687 1.351562,0.335938 2.515625,0.902344 3.484375,1.703125 0.96875,0.804687 1.738281,1.742187 2.3125,2.8125 0.570313,1.074219 0.960937,2.214844 1.171875,3.421875 0.207031,1.199219 0.238281,2.382812 0.09375,3.546875 -0.167969,1.179687 -0.574219,2.296875 -1.21875,3.359375 -0.648438,1.0625 -1.484375,1.96875 -2.515625,2.71875 -1.023437,0.75 -2.171875,1.261719 -3.453125,1.53125 C 9.09375,-0.0703175 7.738281,-0.117193 6.3125,-0.48438 Z M 6.75,-8.09375 c 0.25,0.617188 0.625,1.164062 1.125,1.640625 0.5,0.46875 1.054688,0.703125 1.671875,0.703125 0.613281,-0.00781 1.195313,-0.378906 1.75,-1.109375 0.414063,-0.550781 0.675781,-1.171875 0.78125,-1.859375 0.101563,-0.6875 0.101563,-1.378906 0,-2.078125 -0.09375,-0.695313 -0.273437,-1.328125 -0.53125,-1.890625 -0.136719,-0.363281 -0.355469,-0.734375 -0.65625,-1.109375 -0.292969,-0.375 -0.652344,-0.6875 -1.078125,-0.9375 -0.417969,-0.25 -0.851562,-0.351563 -1.296875,-0.3125 -0.4375,0.04297 -0.855469,0.3125 -1.25,0.8125 -0.460937,0.554687 -0.75,1.199219 -0.875,1.9375 -0.125,0.730469 -0.148437,1.460937 -0.0625,2.1875 0.082031,0.730469 0.222656,1.402344 0.421875,2.015625 z m 0,0"
                   id="path73467" /><path
                   style="color:#000000;fill:#000000;stroke:none;-inkscape-stroke:none"
                   d="m 7.9824219,-19.90625 c -0.8008818,-0.0079 -1.5525927,0.08979 -2.2539063,0.291016 -1.3880999,0.392634 -2.545324,1.077565 -3.46875,2.052734 -0.9192639,0.974737 -1.61713488,2.120313 -2.09179685,3.4375 -0.47438411,1.30851 -0.703209,2.6802 -0.6953125,4.109375 0,1.4224826 0.25381853,2.7950754 0.75976563,4.1113281 0.50664184,1.3220181 1.25600992,2.4729686 2.25000002,3.4550781 1.0062485,0.9863624 2.2757617,1.6862171 3.7949218,2.0976563 h 0.00195 c 1.4433575,0.37171356 2.8213419,0.42079784 4.1250003,0.14257812 1.298563,-0.27342852 2.465507,-0.79372322 3.503906,-1.55468752 1.045221,-0.7601605 1.89507,-1.680194 2.552734,-2.7578125 v -0.00195 c 0.653376,-1.0770802 1.065716,-2.2119044 1.236329,-3.4101562 l 0.002,-0.00195 c 0.146227,-1.1777242 0.113505,-2.3760614 -0.0957,-3.5878914 -0.213356,-1.220863 -0.608551,-2.376082 -1.185547,-3.46289 -0.582567,-1.085874 -1.364156,-2.038199 -2.345703,-2.853516 -0.985834,-0.814902 -2.170392,-1.390278 -3.539063,-1.730468 h -0.002 C 9.6320984,-19.785239 8.7833037,-19.898347 7.9824219,-19.90625 Z m -0.00391,0.275391 c 0.7766423,0.0077 1.6069461,0.115642 2.4882811,0.326172 1.33445,0.331684 2.478023,0.889123 3.429687,1.675781 0.955951,0.794055 1.713428,1.716734 2.279297,2.771484 0.563629,1.061628 0.949683,2.187663 1.158203,3.380859 0.204854,1.186607 0.234632,2.3554605 0.0918,3.5058599 -0.16554,1.1602054 -0.563985,2.259468 -1.199219,3.3066406 -0.639103,1.0468461 -1.461638,1.938187 -2.478515,2.6777344 -1.00799,0.7386798 -2.137184,1.24207706 -3.400391,1.50781247 h -0.002 C 9.087478,-0.20999198 7.7550978,-0.25501397 6.3476562,-0.6171875 h -0.00195 C 4.8656963,-1.0183092 3.6437362,-1.6937911 2.6738281,-2.6445313 1.7068822,-3.5999198 0.97968528,-4.7145998 0.48632813,-6.0019531 c -0.49405191,-1.2853067 -0.74023438,-2.6236573 -0.74023438,-4.0136719 -0.007729,-1.398948 0.21657255,-2.738199 0.6796875,-4.015625 0.4628371,-1.284373 1.13996885,-2.396613 2.03320315,-3.34375 0.8890722,-0.938891 1.9974787,-1.597713 3.34375,-1.978516 0.673685,-0.193301 1.3985396,-0.285064 2.1757812,-0.277343 z m 0.5234375,4.447265 c -0.4845063,0.04759 -0.9349061,0.347096 -1.34375,0.865235 -0.4746344,0.572394 -0.7739876,1.239943 -0.9023437,1.998046 -0.1270805,0.742627 -0.1519892,1.486481 -0.064453,2.226563 0.082929,0.738464 0.2252855,1.4197445 0.4277344,2.0429687 l 0.00195,0.00391 0.00195,0.00391 c 0.2573235,0.6352681 0.6450799,1.2003821 1.1582031,1.6894532 0.5202552,0.4877392 1.1137615,0.7402343 1.765625,0.7402344 h 0.00195 c 0.6674188,-0.0085 1.2883388,-0.4146351 1.8574218,-1.1640625 0.427124,-0.5681551 0.697897,-1.211074 0.806641,-1.9199219 v -0.00195 c 0.103503,-0.7006336 0.103409,-1.4052579 0,-2.1171869 l 0.002,0.002 c -0.09529,-0.706712 -0.279387,-1.352186 -0.542969,-1.927735 -0.142797,-0.377132 -0.367952,-0.757067 -0.673828,-1.138671 -0.303697,-0.388731 -0.675496,-0.712508 -1.1152344,-0.970704 -0.4397571,-0.263032 -0.9052949,-0.373576 -1.3789062,-0.332031 z m 0.025391,0.273438 c 0.4170137,-0.03658 0.8186636,0.056 1.2148437,0.292968 0.4118229,0.241805 0.7587749,0.543029 1.0410159,0.904297 v 0.002 c 0.293466,0.36588 0.504181,0.725284 0.634766,1.072266 l 0.002,0.0039 0.002,0.0039 c 0.251644,0.549041 0.427408,1.168312 0.519531,1.851562 l 0.002,0.002 c 0.09972,0.686507 0.09962,1.3646978 0,2.0390627 -0.102376,0.6654108 -0.355228,1.2639615 -0.755859,1.7968751 -0.539835,0.71091 -1.081981,1.0470185 -1.6406254,1.0546875 -0.5825093,0 -1.0983812,-0.2162559 -1.578125,-0.6660157 C 7.4841942,-7.0146273 7.123659,-7.5408355 6.880997,-8.1366378 c -3.689e-4,-0.00114 3.685e-4,-0.00277 0,-0.00391 C 6.6854541,-8.7430493 6.545824,-9.4038873 6.4648437,-10.125 c -0.084338,-0.713043 -0.062372,-1.430128 0.060547,-2.148438 0.1213881,-0.716948 0.4001104,-1.336825 0.8457031,-1.873046 l 0.00195,-0.002 v -0.002 c 0.3797687,-0.481291 0.7642774,-0.72098 1.1542969,-0.759765 z"
                   id="path73469" /></g></g></g></g><g
           fill="#fd8279"
           fill-opacity="1"
           id="g73375"
           style="fill:#fd822c;stroke-width:0.273949"
           transform="matrix(1.1825467,0,0,1.1917426,-21.084861,-11.796918)"><g
             transform="translate(68.422896,41.666323)"
             id="g73373"><g
               id="g73371"><g
                 id="path73369"><path
                   style="color:#000000;stroke:none;-inkscape-stroke:none"
                   d="m 6.296875,0.640625 c -1.40625,-0.65625 -2.511719,-1.550781 -3.3125,-2.6875 -0.792969,-1.132813 -1.320313,-2.382813 -1.578125,-3.75 -0.25,-1.363281 -0.257812,-2.742187 -0.015625,-4.140625 0.238281,-1.394531 0.703125,-2.6875 1.390625,-3.875 0.695312,-1.195312 1.578125,-2.179688 2.640625,-2.953125 1.0625,-0.78125 2.300781,-1.242187 3.71875,-1.390625 1.414063,-0.144531 2.96875,0.152344 4.65625,0.890625 1.25,0.574219 2.28125,1.34375 3.09375,2.3125 0.8125,0.960937 1.40625,2.015625 1.78125,3.171875 0.382813,1.148438 0.570313,2.328125 0.5625,3.546875 -0.01172,1.21875 -0.199219,2.390625 -0.5625,3.515625 -0.367187,1.136719 -0.960937,2.167969 -1.78125,3.09375 C 16.066406,-0.695312 15.082031,0.0390625 13.9375,0.59375 12.800781,1.15625 11.578125,1.457031 10.265625,1.5 8.960938,1.539062 7.640625,1.253906 6.296875,0.640625 Z m 1.78125,-7.421875 c 0.132813,0.65625 0.40625,1.261719 0.8125,1.8125 0.414063,0.554688 0.925781,0.882812 1.53125,0.984375 0.601563,0.105469 1.242187,-0.148437 1.921875,-0.765625 0.507812,-0.46875 0.875,-1.03125 1.09375,-1.6875 0.226562,-0.65625 0.351562,-1.335938 0.375,-2.046875 0.01953,-0.707031 -0.04297,-1.363281 -0.1875,-1.96875 -0.0625,-0.382813 -0.214844,-0.785156 -0.453125,-1.203125 -0.230469,-0.425781 -0.527344,-0.796875 -0.890625,-1.109375 -0.367188,-0.320313 -0.773438,-0.5 -1.21875,-0.53125 -0.449219,-0.03906 -0.914062,0.148437 -1.390625,0.5625 -0.542969,0.46875 -0.945313,1.058594 -1.203125,1.765625 -0.25,0.699219 -0.402344,1.414062 -0.453125,2.140625 -0.042969,0.730469 -0.023437,1.414063 0.0625,2.046875 z m 0,0"
                   id="path73473" /><path
                   style="color:#000000;fill:#000000;stroke:none;-inkscape-stroke:none"
                   d="m 9.1269531,-18.292969 c -1.4383391,0.150571 -2.7027623,0.620533 -3.7851562,1.416016 -1.07802,0.784735 -1.9754731,1.785477 -2.6796875,2.996094 -0.6956864,1.20164 -1.1653554,2.510095 -1.40625,3.9199215 -0.2448548,1.4138421 -0.2372392,2.8105537 0.015625,4.1894531 0.2612972,1.3856694 0.7978083,2.654514 1.6015625,3.8027344 0.8154765,1.15757946 1.9406893,2.06958733 3.3652343,2.734375 h 0.00195 c 1.3599897,0.6206927 2.7019166,0.9108352 4.0292968,0.8710937 1.330612,-0.043562 2.574201,-0.3487148 3.728516,-0.91992183 1.15949,-0.56193721 2.157762,-1.3065963 2.99414,-2.24999997 0.832039,-0.9390146 1.437533,-1.9878191 1.810547,-3.1425781 0.367593,-1.1383534 0.556513,-2.3246895 0.56836,-3.5566407 v -0.00195 c 0.0079,-1.2333632 -0.180891,-2.4274401 -0.56836,-3.5898441 -0.380548,-1.173357 -0.983479,-2.24325 -1.80664,-3.216797 -0.82622,-0.985107 -1.876365,-1.767942 -3.142578,-2.349609 h -0.002 c -1.703449,-0.745258 -3.281571,-1.049836 -4.7246101,-0.902344 z m 0.027344,0.273438 c 1.3845729,-0.141517 2.9151099,0.148199 4.5859369,0.878906 1.233785,0.56677 2.246143,1.323 3.044922,2.275391 0.801837,0.948325 1.386409,1.987812 1.75586,3.126953 0.378157,1.13447 0.56436,2.2997716 0.55664,3.503906 -0.01178,1.2048332 -0.197869,2.3616211 -0.55664,3.4726563 -0.361359,1.1186766 -0.943368,2.1323762 -1.751954,3.0449218 -0.812057,0.91597047 -1.782539,1.64006335 -2.912109,2.18750003 C 12.757832,1.0244949 11.556105,1.3209053 10.261719,1.3632812 8.9803395,1.4016454 7.6823148,1.1208925 6.3554687,0.515625 h -0.00195 C 4.966324,-0.13201513 3.8814873,-1.0095692 3.0957031,-2.125 2.3135209,-3.2424034 1.7953419,-4.4735637 1.5410156,-5.8222656 1.2938803,-7.1699254 1.2858719,-8.5310314 1.5253906,-9.9140625 c 0.235667,-1.3792325 0.6956878,-2.6567205 1.375,-3.8300785 0.6864082,-1.180005 1.5545847,-2.148018 2.6015625,-2.910156 h 0.00195 c 1.0422943,-0.766393 2.2534132,-1.218994 3.6503907,-1.365234 z m 1.9179689,4.585937 c -0.494487,-0.04243 -0.996395,0.16663 -1.4902345,0.595703 -0.5606563,0.48402 -0.9770627,1.09518 -1.2421875,1.822266 -0.2540247,0.710475 -0.4092638,1.4383982 -0.4609376,2.1777344 v 0.00195 c -0.043406,0.7378982 -0.022881,1.4291627 0.064453,2.0722656 v 0.00586 0.00391 c 0.1368141,0.67602 0.4206048,1.3014445 0.8378906,1.8671875 0.4309336,0.5772882 0.9766674,0.9296668 1.617188,1.0371093 0.654686,0.1147829 1.339551,-0.1654138 2.037109,-0.7988281 h 0.002 c 0.523081,-0.4828444 0.902931,-1.0676662 1.128906,-1.7441406 0.231011,-0.6691362 0.358941,-1.3637984 0.382813,-2.0878907 0.01972,-0.7139009 -0.04336,-1.378161 -0.189453,-1.9941404 l -0.002,-0.0039 c -0.06592,-0.400157 -0.222418,-0.816052 -0.464844,-1.242187 v -0.002 c -0.237947,-0.439217 -0.54631,-0.823418 -0.921875,-1.146485 -0.385292,-0.336105 -0.821491,-0.530678 -1.296875,-0.564453 z m -0.02149,0.273438 h 0.002 c 0.414539,0.02909 0.790077,0.193952 1.138672,0.498047 0.350608,0.301598 0.636487,0.658536 0.859375,1.070312 l 0.002,0.002 v 0.002 c 0.231991,0.406935 0.378245,0.793309 0.4375,1.15625 v 0.0059 l 0.002,0.0039 c 0.14141,0.5924012 0.202836,1.2369649 0.183593,1.9335937 -0.023,0.6977803 -0.145074,1.3624969 -0.367187,2.0058594 l -0.002,0.00195 C 13.095007,-5.8455676 12.741862,-5.3055894 12.25,-4.8515625 11.58892,-4.2518532 10.993242,-4.023075 10.445313,-4.1191406 9.8748958,-4.2148239 9.3971916,-4.5186946 9,-5.0507812 8.6047866,-5.5865992 8.3417023,-6.1721151 8.2128906,-6.8085937 8.1293843,-7.4286114 8.1100171,-8.100764 8.1523438,-8.8203125 c 0.050021,-0.7131336 0.1995561,-1.4142125 0.4453125,-2.1015625 0.2504986,-0.686975 0.6387818,-1.255505 1.1640625,-1.708984 0.4587272,-0.398567 0.8856532,-0.564374 1.2890622,-0.529297 z"
                   id="path73475" /></g></g></g></g><g
           fill="#ffc31e"
           fill-opacity="1"
           id="g73383"
           style="fill:#ffc321;stroke-width:0.273949"
           transform="matrix(1.1825467,0,0,1.1917426,-32.096707,-12.084704)"><g
             transform="translate(104.70569,44.55813)"
             id="g73381"><g
               id="g73379"><g
                 id="path73377"><path
                   style="color:#000000;stroke:none;-inkscape-stroke:none"
                   d="M 8.28125,2.234375 C 7.007812,1.628906 5.953125,0.804688 5.109375,-0.234375 4.273438,-1.285156 3.675781,-2.46875 3.3125,-3.78125 2.945312,-5.09375 2.847656,-6.445312 3.015625,-7.84375 c 0.175781,-1.40625 0.640625,-2.738281 1.390625,-4 0.789062,-1.320312 1.769531,-2.378906 2.9375,-3.171875 1.175781,-0.800781 2.4375,-1.363281 3.78125,-1.6875 1.351562,-0.320313 2.703125,-0.425781 4.046875,-0.3125 1.34375,0.105469 2.597656,0.429687 3.765625,0.96875 1.164062,0.542969 2.144531,1.273437 2.9375,2.1875 0.800781,0.917969 1.328125,2.007813 1.578125,3.265625 0.257813,1.25 0.148437,2.664062 -0.328125,4.234375 -0.21875,0.679687 -0.667969,1.203125 -1.34375,1.578125 -0.679688,0.375 -1.496094,0.632812 -2.453125,0.765625 -0.949219,0.125 -1.964844,0.152344 -3.046875,0.078125 -1.085938,-0.070312 -2.15625,-0.210938 -3.21875,-0.421875 -1.054688,-0.207031 -2,-0.445313 -2.84375,-0.71875 0.113281,1.21875 0.457031,2.089844 1.03125,2.609375 0.570312,0.523438 1.304688,0.820312 2.203125,0.890625 0.894531,0.0625 1.859375,0.015625 2.890625,-0.140625 0.894531,-0.21875 1.582031,-0.210938 2.0625,0.015625 0.476562,0.230469 0.890625,0.765625 1.234375,1.609375 0.238281,0.550781 0.257813,1.109375 0.0625,1.671875 -0.199219,0.5625 -0.578125,1 -1.140625,1.3125 -0.71875,0.394531 -1.539062,0.640625 -2.453125,0.734375 -0.90625,0.101562 -1.839844,0.101562 -2.796875,0 -0.960938,-0.105469 -1.882812,-0.289062 -2.765625,-0.546875 -0.875,-0.25 -1.632813,-0.53125 -2.265625,-0.84375 z m 2.890625,-11.125 c 0,0 0.226563,0.070313 0.6875,0.203125 0.46875,0.136719 1.046875,0.292969 1.734375,0.46875 0.695312,0.167969 1.40625,0.304688 2.125,0.40625 0.726562,0.105469 1.347656,0.125 1.859375,0.0625 0.507813,-0.070312 0.8125,-0.285156 0.90625,-0.640625 0.164063,-0.664063 0.05469,-1.234375 -0.328125,-1.703125 -0.375,-0.46875 -0.902344,-0.816406 -1.578125,-1.046875 -0.679687,-0.238281 -1.398437,-0.332031 -2.15625,-0.28125 -0.761719,0.04297 -1.445313,0.273437 -2.046875,0.6875 -0.605469,0.417969 -1.007812,1.03125 -1.203125,1.84375 z M 11.75,-19.125 c -0.324219,-0.1875 -0.464844,-0.414062 -0.421875,-0.6875 0.05078,-0.269531 0.210937,-0.578125 0.484375,-0.921875 0.269531,-0.34375 0.566406,-0.675781 0.890625,-1 0.769531,-0.820313 1.554687,-1.488281 2.359375,-2 0.800781,-0.507813 1.617188,-0.660156 2.453125,-0.453125 0.84375,0.210938 1.492187,0.742188 1.953125,1.59375 0.457031,0.84375 0.84375,1.792969 1.15625,2.84375 0.21875,0.730469 0.328125,1.34375 0.328125,1.84375 0,0.492188 -0.242187,0.792969 -0.71875,0.90625 -0.523437,0.136719 -0.949219,0.07422 -1.28125,-0.1875 -0.324219,-0.257812 -0.625,-0.628906 -0.90625,-1.109375 -0.273437,-0.476563 -0.605469,-0.960937 -1,-1.453125 -0.1875,-0.175781 -0.367187,-0.285156 -0.53125,-0.328125 -0.167969,-0.03906 -0.359375,-0.0039 -0.578125,0.109375 -0.824219,0.46875 -1.480469,0.796875 -1.96875,0.984375 -0.492188,0.179687 -0.898438,0.246094 -1.21875,0.203125 -0.3125,-0.05078 -0.648438,-0.164062 -1,-0.34375 z m 0,0"
                   id="path73479" /><path
                   style="color:#000000;fill:#000000;stroke:none;-inkscape-stroke:none"
                   d="m 16.251953,-24.363281 c -0.427698,0.07911 -0.850734,0.251808 -1.263672,0.513672 -0.816188,0.519032 -1.608813,1.194325 -2.384765,2.021484 -0.326532,0.326752 -0.626049,0.662371 -0.898438,1.009766 -0.281296,0.353965 -0.454848,0.678609 -0.511719,0.980468 v 0.002 0.002 c -0.02594,0.165087 0.0055,0.328569 0.0918,0.46875 0.08627,0.140181 0.221107,0.257952 0.396485,0.359375 l 0.002,0.002 h 0.0039 c 0.362275,0.185163 0.712023,0.303962 1.041016,0.357422 h 0.002 l 0.002,0.002 c 0.35387,0.04747 0.77842,-0.02665 1.283203,-0.210938 h 0.002 v -0.002 c 0.499863,-0.191947 1.160781,-0.521571 1.988281,-0.992187 0.194957,-0.09957 0.348814,-0.124043 0.47461,-0.0957 0.130594,0.0342 0.291673,0.130432 0.464843,0.291015 0.3872,0.483942 0.714626,0.959049 0.982422,1.425781 0.287225,0.490676 0.597419,0.876459 0.939453,1.148438 h 0.002 c 0.36741,0.289608 0.847479,0.355245 1.396484,0.212891 0.259739,-0.06174 0.47072,-0.180304 0.613281,-0.359375 0.142562,-0.179072 0.210938,-0.411128 0.210938,-0.679688 0,-0.519975 -0.11279,-1.144181 -0.333985,-1.882812 -0.314876,-1.058772 -0.703906,-2.016015 -1.166015,-2.869141 -0.475185,-0.877882 -1.160789,-1.442052 -2.041016,-1.662109 -0.435678,-0.107902 -0.869177,-0.12208 -1.296875,-0.04297 z m 0.04883,0.267578 c 0.389685,-0.07226 0.781383,-0.05811 1.181641,0.04102 0.807271,0.201818 1.418544,0.70015 1.865234,1.52539 0.451952,0.834373 0.836362,1.775571 1.146485,2.81836 0.216305,0.722304 0.322265,1.324663 0.322265,1.804687 0,0.223627 -0.05272,0.387079 -0.15039,0.509766 -0.09767,0.122686 -0.246067,0.212132 -0.462891,0.263672 h -0.002 -0.002 c -0.495171,0.129335 -0.864752,0.06997 -1.160157,-0.16211 -0.306402,-0.243645 -0.597772,-0.600051 -0.873046,-1.070312 -0.277319,-0.483329 -0.613216,-0.97356 -1.011719,-1.470703 l -0.0059,-0.0078 -0.0078,-0.0059 c -0.198672,-0.186255 -0.394383,-0.310136 -0.589844,-0.361328 h -0.002 -0.002 c -0.207992,-0.04837 -0.43443,-0.0019 -0.671875,0.121093 h -0.002 l -0.0039,0.002 c -0.81995,0.466322 -1.470719,0.791435 -1.947266,0.97461 -0.479592,0.175088 -0.867543,0.233779 -1.154297,0.195312 -0.293166,-0.04811 -0.612119,-0.154559 -0.949219,-0.326172 -0.148841,-0.08608 -0.246421,-0.175337 -0.300781,-0.263671 -0.05364,-0.08716 -0.07059,-0.172964 -0.05469,-0.279297 v -0.002 c 0.04488,-0.236507 0.192703,-0.527078 0.457031,-0.859375 v -0.002 c 0.265822,-0.33902 0.560141,-0.66561 0.880859,-0.986328 v -0.002 l 0.002,-0.002 c 0.763108,-0.813466 1.540798,-1.474111 2.333985,-1.978516 0.387842,-0.245949 0.774378,-0.404306 1.164062,-0.476562 z m -1.11914,6.943359 c -1.357864,-0.11426 -2.723605,-0.0069 -4.087891,0.316407 -1.3598592,0.328105 -2.6373767,0.897386 -3.8261719,1.707031 -1.1853648,0.804779 -2.1803613,1.879318 -2.9785156,3.214843 -0.7589334,1.276748 -1.2320095,2.6275586 -1.4101562,4.0527349 v 0.00195 c -0.1699647,1.415053 -0.071282,2.7853084 0.3007812,4.1152344 0.367936,1.3293182 0.9749337,2.5305985 1.8222656,3.5957031 h 0.00195 C 5.8601973,0.90606778 6.9308696,1.7439073 8.220702,2.3574188 h 0.00195 c 0.6417034,0.3167498 1.4056458,0.6001764 2.285157,0.8515625 0.890645,0.2601005 1.820433,0.4464212 2.789062,0.5527344 h 0.002 c 0.965658,0.1024775 1.908219,0.1025084 2.824219,0 0.92999,-0.095384 1.769635,-0.3478301 2.505859,-0.7519532 0.587072,-0.326172 0.993078,-0.7937645 1.203082,-1.3867156 0.205232,-0.5910657 0.183411,-1.19087109 -0.06641,-1.76953127 C 19.415264,-1.0052207 18.989506,-1.5733857 18.466797,-1.8261719 h -0.002 C 17.939835,-2.073715 17.221491,-2.0743378 16.3105,-1.8515629 l 0.01172,-0.00195 c -1.02275,0.154962 -1.976427,0.2003626 -2.859375,0.1386719 -0.874326,-0.068426 -1.57493,-0.3541943 -2.121094,-0.8554688 -0.502842,-0.4549519 -0.811723,-1.2435562 -0.943359,-2.3203125 0.798339,0.2488833 1.660214,0.4743317 2.636718,0.6660156 1.068327,0.2120939 2.144431,0.3531303 3.236328,0.4238281 1.09016,0.074777 2.115026,0.048189 3.074219,-0.078125 v -0.00195 h 0.002 c 0.97043,-0.1346724 1.802942,-0.3966664 2.5,-0.78125 0.700547,-0.388743 1.178982,-0.9440278 1.408203,-1.65625 v -0.00195 c 0.481507,-1.5866044 0.595521,-3.023261 0.332032,-4.3007814 -0.254231,-1.279096 -0.792874,-2.392134 -1.609375,-3.328125 -0.805922,-0.928993 -1.802413,-1.672249 -2.982422,-2.222656 h -0.002 c -1.182294,-0.545674 -2.452333,-0.873645 -3.810547,-0.980469 z m -0.02149,0.273438 h 0.002 c 1.327891,0.104224 2.564209,0.425314 3.716797,0.957031 1.148113,0.53553 2.112563,1.253213 2.892578,2.152344 0.785059,0.899946 1.301106,1.966599 1.546875,3.203125 0.252137,1.222477 0.147399,2.61395 -0.324218,4.1679685 -0.208442,0.6464288 -0.628774,1.137063 -1.279297,1.4980469 -0.662317,0.3654157 -1.46262,0.6190467 -2.40625,0.75 l 0.002,-0.00195 c -0.939243,0.1236862 -1.945631,0.1517863 -3.019531,0.078125 -1.079977,-0.069926 -2.144502,-0.2101422 -3.201172,-0.4199219 -1.050374,-0.2061842 -1.990718,-0.4434623 -2.828125,-0.7148438 l -0.199219,-0.064453 0.01953,0.2070313 c 0.115088,1.2381856 0.465636,2.1468293 1.076172,2.6992187 0.594459,0.5456004 1.36261,0.8535814 2.285156,0.9257813 0.906112,0.063309 1.882127,0.01496 2.921875,-0.1425782 h 0.0059 l 0.0059,-0.00195 c 0.877199,-0.2145115 1.532768,-0.1991431 1.96875,0.00586 0.429739,0.2078252 0.831085,0.71021152 1.167969,1.53710935 v 0.0019531 l 0.002,0.0019531 c 0.225963,0.52230905 0.243762,1.03898386 0.05859,1.57226555 -0.188434,0.5320478 -0.540242,0.939457 -1.078125,1.2382813 -0.701274,0.3849381 -1.502257,0.6246806 -2.400391,0.7167969 h -0.002 c -0.89527,0.1003314 -1.818594,0.1003624 -2.765625,0 h -0.002 C 12.373634,3.3836222 11.460316,3.2026154 10.585938,2.9472656 h -0.002 C 9.7149906,2.6989817 8.9649367,2.4190517 8.3417969,2.1113281 h -0.00195 C 7.0839442,1.514198 6.0475165,0.70234084 5.2167969,-0.3203125 4.3922565,-1.3567678 3.8039377,-2.5226802 3.4453125,-3.8183594 3.0830004,-5.1134308 2.9863708,-6.4463048 3.1523438,-7.828125 c 0.1735894,-1.3866428 0.6303558,-2.699175 1.3710937,-3.945313 0.7799682,-1.305095 1.7459135,-2.347749 2.8964844,-3.128906 1.1627644,-0.791916 2.40869,-1.347637 3.7363281,-1.667968 1.338187,-0.317144 2.67491,-0.420631 4.003906,-0.308594 z m -0.748047,5.320312 c -0.783841,0.04455 -1.493821,0.283211 -2.115234,0.710938 -0.633673,0.437439 -1.056169,1.0869469 -1.257812,1.925781 l -0.03125,0.125 0.123046,0.037109 c 0,0 0.230044,0.070727 0.689454,0.203125 0.470881,0.1373407 1.051716,0.2946618 1.740234,0.4707031 h 0.002 c 0.699536,0.1689894 1.413497,0.3060093 2.136719,0.4082031 0.735164,0.1067178 1.368117,0.1289865 1.896484,0.064453 l 0.002,-0.00195 c 0.268994,-0.037245 0.492868,-0.1126276 0.667969,-0.2363281 0.175101,-0.1237005 0.297092,-0.297371 0.351562,-0.5039063 v -0.00195 c 0.171843,-0.6955512 0.05369,-1.3212578 -0.355468,-1.8222658 -0.39343,-0.491245 -0.94424,-0.853013 -1.638672,-1.089843 -0.696946,-0.244332 -1.434922,-0.34068 -2.208984,-0.289063 z m 0.01758,0.273438 h 0.002 c 0.740826,-0.04964 1.439741,0.04142 2.101562,0.273437 0.656555,0.223912 1.159119,0.558273 1.515625,1.003906 h 0.002 c 0.35647,0.4364918 0.457065,0.9514115 0.300781,1.5839849 -0.03942,0.148092 -0.116987,0.2578283 -0.24414,0.3476562 -0.127087,0.089781 -0.309565,0.1562444 -0.546875,0.1894532 -0.49507,0.060467 -1.104308,0.043673 -1.822266,-0.060547 -0.71364,-0.10084 -1.42083,-0.2375528 -2.111328,-0.4042969 h -0.002 c -0.685527,-0.1752943 -1.260436,-0.3308432 -1.726562,-0.4667969 h -0.002 c -0.348417,-0.1003912 -0.434494,-0.1289651 -0.517578,-0.1542969 0.200025,-0.710606 0.53413,-1.2756016 1.074219,-1.6484376 0.581194,-0.400043 1.237741,-0.622384 1.976562,-0.664062 z"
                   id="path73481" /></g></g></g></g><g
           fill="#68c8dd"
           fill-opacity="1"
           id="g73391"
           style="fill:#68c8ee;stroke-width:0.273949"
           transform="matrix(1.1825467,0,0,1.1917426,-1.8354126,-11.89947)"><g
             transform="translate(19.819477,49.745687)"
             id="g73389"><g
               id="g73387"><g
                 id="path73385"><path
                   style="color:#000000;stroke:none;-inkscape-stroke:none"
                   d="M 7.0625,-2.015625 C 5.71875,-2.078125 4.476562,-2.40625 3.34375,-3 2.21875,-3.59375 1.253906,-4.390625 0.453125,-5.390625 c -0.789063,-1 -1.367187,-2.132813 -1.734375,-3.40625 -0.363281,-1.269531 -0.429688,-2.617187 -0.203125,-4.046875 0.210937,-1.46875 0.703125,-2.773438 1.484375,-3.921875 0.789062,-1.15625 1.757812,-2.113281 2.90625,-2.875 1.15625,-0.769531 2.398438,-1.3125 3.734375,-1.625 1.34375,-0.3125 2.691406,-0.378906 4.046875,-0.203125 0.476562,0.117188 0.984375,0.246094 1.515625,0.390625 0.539063,0.148437 0.953125,0.453125 1.234375,0.921875 0.25,0.53125 0.3125,1.140625 0.1875,1.828125 -0.117188,0.6875 -0.414062,1.210937 -0.890625,1.5625 -0.417969,0.375 -0.886719,0.601563 -1.40625,0.671875 -0.511719,0.07422 -1.039063,0.117188 -1.578125,0.125 -0.53125,0 -1.078125,0.08594 -1.640625,0.25 -0.554687,0.167969 -1.078125,0.546875 -1.578125,1.140625 -0.511719,0.625 -0.835938,1.339844 -0.96875,2.140625 -0.125,0.804688 -0.085938,1.59375 0.125,2.375 0.207031,0.773438 0.578125,1.417969 1.109375,1.9375 0.601563,0.617188 1.226563,0.960938 1.875,1.03125 0.65625,0.0625 1.328125,-0.054688 2.015625,-0.359375 0.695312,-0.300781 1.398438,-0.660156 2.109375,-1.078125 0.707031,-0.519531 1.328125,-0.769531 1.859375,-0.75 0.53125,0.023438 1.101562,0.367188 1.71875,1.03125 0.40625,0.375 0.613281,0.855469 0.625,1.4375 0.01953,0.585938 -0.152344,1.117188 -0.515625,1.59375 -0.492187,0.636719 -1.121094,1.171875 -1.890625,1.609375 -0.773438,0.429687 -1.609375,0.765625 -2.515625,1.015625 -0.898437,0.25 -1.789063,0.421875 -2.671875,0.515625 -0.875,0.09375 -1.65625,0.117187 -2.34375,0.0625 z m 0,0"
                   id="path73485" /><path
                   style="color:#000000;fill:#000000;stroke:none;-inkscape-stroke:none"
                   d="m 10.705078,-21.605469 c -1.3713137,-0.177836 -2.7364441,-0.109075 -4.095703,0.207032 -1.3518631,0.316225 -2.6101189,0.866396 -3.7792969,1.644531 -1.1629093,0.771317 -2.14471129,1.739859 -2.94335935,2.910156 v 0.002 c -0.79299635,1.165704 -1.29212895,2.490211 -1.50585935,3.976563 -0.2292931,1.446915 -0.1620884,2.815534 0.2070312,4.1054684 0.3718004,1.2894332 0.95774355,2.4391768 1.75781253,3.453125 v 0.00195 c 0.81214277,1.0141884 1.79244437,1.823508 2.93359377,2.4257812 1.1508995,0.6032304 2.4152826,0.9366484 3.7773437,1.0000001 0.6974788,0.055053 1.4842771,0.031679 2.3632813,-0.0625 0.8906731,-0.094585 1.7899741,-0.2676108 2.6953121,-0.5195313 0.915758,-0.2526227 1.761353,-0.5939814 2.544922,-1.0292969 h 0.002 c 0.783377,-0.4453714 1.425684,-0.9925258 1.929688,-1.6445312 h 0.002 c 0.380006,-0.4985027 0.563031,-1.0650031 0.542969,-1.6796875 -0.0123,-0.6107253 -0.237064,-1.1329818 -0.666016,-1.53125 -0.62835,-0.6749518 -1.223953,-1.0464721 -1.808594,-1.0722657 -0.574451,-0.021119 -1.21998,0.2462933 -1.935546,0.7695313 -0.706493,0.4153562 -1.404045,0.771957 -2.09375,1.0703125 C 9.9642915,-7.2818491 9.3182939,-7.1707299 8.6875,-7.2304687 8.077253,-7.2966397 7.4807381,-7.6192702 6.8945312,-8.2207031 v -0.00195 h -0.00195 c -0.513562,-0.5022333 -0.8708946,-1.1226985 -1.0722687,-1.8750029 -0.205997,-0.76295 -0.2452976,-1.53137 -0.1230469,-2.31836 0.1289766,-0.777655 0.442876,-1.467232 0.9394531,-2.074218 0.4881545,-0.579684 0.9888419,-0.93932 1.5117188,-1.097657 0.5519337,-0.160978 1.0850852,-0.24414 1.6015625,-0.24414 h 0.00195 c 0.544381,-0.0079 1.076825,-0.05206 1.59375,-0.126953 0.544517,-0.07369 1.038882,-0.314159 1.472656,-0.701172 0.50447,-0.373655 0.819758,-0.931205 0.941407,-1.642578 v -0.002 c 0.128466,-0.708568 0.06395,-1.350917 -0.199219,-1.910157 l -0.002,-0.0059 -0.0039,-0.0059 c -0.298293,-0.497154 -0.746446,-0.827968 -1.314454,-0.984375 h -0.002 c -0.532678,-0.14492 -1.040309,-0.273264 -1.517578,-0.390625 l -0.0078,-0.002 z m -0.03516,0.273438 c 0.471003,0.115903 0.972427,0.244273 1.496094,0.386719 0.507624,0.139779 0.884404,0.418839 1.148437,0.855468 0.233964,0.501121 0.296259,1.073702 0.175781,1.736328 v 0.002 c -0.112684,0.661078 -0.391727,1.147425 -0.83789,1.476562 l -0.0039,0.0039 -0.0059,0.0039 c -0.40049,0.359318 -0.840402,0.572136 -1.332031,0.638671 h -0.002 c -0.505921,0.07338 -1.027468,0.115322 -1.5605471,0.123047 -0.5454326,2.01e-4 -1.1053205,0.08891 -1.6777344,0.25586 -0.586496,0.177601 -1.1326867,0.575778 -1.6445313,1.183593 v 0.002 c -0.5261844,0.642668 -0.8615005,1.381782 -0.9980468,2.205079 -0.1277491,0.822385 -0.088926,1.632092 0.1269531,2.43164 0.2124415,0.7936512 0.5966064,1.4615327 1.1445312,1.9980471 4.736e-4,4.859e-4 0.00148,-4.855e-4 0.00195,0 4.033e-4,3.948e-4 -4.035e-4,0.00156 0,0.00195 0.6162748,0.6315525 1.2692682,0.9959481 1.9550781,1.0703126 h 0.00195 c 0.6811206,0.064869 1.3781572,-0.058285 2.0839852,-0.3710938 0.700917,-0.3032059 1.40962,-0.6653565 2.125,-1.0859375 l 0.0059,-0.00195 0.0059,-0.00391 c 0.693082,-0.509281 1.287038,-0.7424197 1.771485,-0.7246094 0.476647,0.021029 1.020411,0.3377753 1.625,0.9882813 l 0.002,0.00391 0.0039,0.00391 c 0.380444,0.3511792 0.570935,0.7868052 0.582031,1.3378906 v 0.00195 c 0.01855,0.556441 -0.142126,1.0517638 -0.488281,1.5058593 -0.480239,0.6209304 -1.094388,1.1448541 -1.849609,1.5742188 -0.762874,0.4236466 -1.58824,0.7547434 -2.484375,1.0019531 -0.891534,0.248079 -1.773489,0.4188037 -2.6484382,0.5117187 -0.8688162,0.093088 -1.6421202,0.1162913 -2.3183594,0.0625 h -0.00391 -0.00195 C 5.7429232,-2.2139919 4.5229253,-2.5368253 3.4082031,-3.1210938 2.2993548,-3.7063193 1.3499645,-4.4907529 0.56054687,-5.4765625 -0.21695707,-6.4622769 -0.78798317,-7.5771267 -1.1503906,-8.8339844 -1.5078323,-10.083109 -1.5734419,-11.409808 -1.3496094,-12.822266 v -0.002 c 0.2082051,-1.449728 0.69432063,-2.732979 1.46289065,-3.863281 0.77947436,-1.142201 1.73517625,-2.087725 2.86914065,-2.839844 1.1433197,-0.760925 2.3694448,-1.296695 3.6894531,-1.605468 1.3282384,-0.308893 2.6584254,-0.372945 3.998047,-0.199219 z"
                   id="path73487" /></g></g></g></g><g
           fill="#68c8dd"
           fill-opacity="1"
           id="g73399"
           style="fill:#68c8ee;stroke-width:0.270206"
           transform="matrix(1.1989299,0,0,1.2082532,-25.713381,-15.157122)"><g
             transform="translate(87.366801,42.287398)"
             id="g73397"><g
               id="g73395"><g
                 id="path73393"><path
                   style="color:#000000;stroke:none;-inkscape-stroke:none"
                   d="M 4.078125,0.90625 C 3.378906,0.6875 2.835938,0.414062 2.453125,0.09375 2.066406,-0.226562 1.859375,-0.671875 1.828125,-1.234375 1.816406,-1.691406 1.851562,-2.332031 1.9375,-3.15625 c 0.082031,-0.820312 0.195312,-1.945312 0.34375,-3.375 0.15625,-1.425781 0.332031,-3.226562 0.53125,-5.40625 0.09375,-0.976562 0.160156,-1.820312 0.203125,-2.53125 0.039063,-0.71875 0.132813,-1.328125 0.28125,-1.828125 0.144531,-0.5 0.414063,-0.898437 0.8125,-1.203125 0.363281,-0.300781 0.882813,-0.484375 1.5625,-0.546875 0.675781,-0.0625 1.363281,-0.03125 2.0625,0.09375 0.707031,0.117187 1.320313,0.3125 1.84375,0.59375 0.53125,0.28125 0.8125,0.621094 0.84375,1.015625 0.425781,-0.25 0.785156,-0.429688 1.078125,-0.546875 0.289062,-0.125 0.609375,-0.195313 0.953125,-0.21875 0.351563,-0.01953 0.789063,0.0078 1.3125,0.07813 0.882813,0.125 1.710937,0.515625 2.484375,1.171875 0.78125,0.648437 1.421875,1.460937 1.921875,2.4375 0.507813,0.96875 0.796875,2.015625 0.859375,3.140625 0.07031,1.117188 -0.15625,2.199219 -0.6875,3.25 -0.148438,0.304688 -0.453125,0.511719 -0.921875,0.625 -0.46875,0.105469 -0.976563,0.125 -1.515625,0.0625 -0.53125,-0.0625 -0.980469,-0.207031 -1.34375,-0.4375 -0.367188,-0.226562 -0.539062,-0.519531 -0.515625,-0.875 L 13.875,-9.375 c -0.02344,-0.351562 -0.132812,-0.640625 -0.328125,-0.859375 -0.08594,-0.113281 -0.210937,-0.203125 -0.375,-0.265625 -0.167969,-0.0625 -0.34375,-0.109375 -0.53125,-0.140625 l -0.109375,-0.01563 c -0.792969,-0.08203 -1.398438,0.28125 -1.8125,1.09375 C 10.300781,-8.757817 9.992188,-7.42188 9.796875,-5.54688 9.628906,-4.023438 9.46875,-2.898438 9.3125,-2.171875 9.15625,-1.441406 8.96875,-0.878906 8.75,-0.484375 8.351562,0.265625 7.707031,0.75 6.8125,0.96875 5.925781,1.195312 5.015625,1.175781 4.078125,0.90625 Z m 0,0"
                   id="path73491" /><path
                   style="color:#000000;fill:#000000;stroke:none;-inkscape-stroke:none"
                   d="m 5.6601562,-18.181641 c -0.6967187,0.06407 -1.2436335,0.254845 -1.6347656,0.578125 -0.4183024,0.32104 -0.7061924,0.746359 -0.8574218,1.269532 -0.152268,0.51352 -0.2476759,1.131853 -0.2871094,1.857421 -0.042852,0.708996 -0.1095026,1.550158 -0.203125,2.525391 v 0.002 c -0.1991771,2.1792293 -0.3751468,3.9779025 -0.53125,5.402344 v 0.00195 c -0.1484606,1.429905 -0.2617107,2.5546043 -0.34375,3.375 -0.086293,0.82762 -0.1213544,1.4722671 -0.109375,1.9394532 v 0.00195 0.00195 c 0.032864,0.59155367 0.2579783,1.07938763 0.6738281,1.42382812 0.4020108,0.3363754 0.9591059,0.61551254 1.6699219,0.83789058 h 0.00195 0.00195 C 4.9991652,1.310624 5.9356971,1.3321213 6.8457031,1.0996094 7.767904,0.87363093 8.4518115,0.36132984 8.8671875,-0.41796875 v -0.001953 C 9.0959211,-0.83292937 9.2876634,-1.4062013 9.4453125,-2.1425781 v -0.00195 C 9.6035122,-2.8805923 9.7635356,-4.0065741 9.9316406,-5.53125 V -5.5332 C 10.126119,-7.400193 10.435578,-8.7254542 10.837891,-9.5 h 0.002 v -0.00195 c 0.397266,-0.779543 0.932377,-1.096636 1.677734,-1.019531 l 0.101563,0.01367 c 0.178749,0.02979 0.344641,0.07563 0.503906,0.134766 0.145145,0.05529 0.247802,0.130273 0.316406,0.220703 l 0.0039,0.0039 0.002,0.0039 c 0.17262,0.1933339 0.27301,0.450665 0.294921,0.7792967 v 0.00195 l 0.171875,1.7207032 v -0.023437 c -0.02655,0.4026662 0.184442,0.7541171 0.578125,0.9980469 4.84e-4,3.07e-4 0.0015,-3.068e-4 0.002,0 0.383978,0.2432263 0.852649,0.394774 1.398437,0.4589843 0.551902,0.063989 1.074895,0.042866 1.560547,-0.066406 h 0.002 c 0.49229,-0.1189697 0.841954,-0.3488015 1.011719,-0.6972656 0.540468,-1.0697449 0.772927,-2.1762471 0.701172,-3.3164065 -0.06352,-1.143399 -0.358394,-2.209787 -0.875,-3.195312 h 0.002 c -0.50748,-0.991173 -1.161034,-1.817838 -1.957032,-2.478516 -0.789131,-0.669165 -1.641467,-1.072419 -2.550781,-1.201171 l -0.002,-0.002 c -0.528705,-0.07104 -0.973161,-0.09839 -1.33789,-0.07813 h -0.002 c -0.356362,0.0243 -0.690599,0.09836 -0.996093,0.230469 -0.278876,0.111695 -0.623742,0.288217 -1.011719,0.511719 -0.09661,-0.375466 -0.314425,-0.722182 -0.794922,-0.976563 -0.5383769,-0.289018 -1.1658431,-0.488409 -1.8828125,-0.607421 h -0.00195 C 7.0461957,-18.21272 6.3479132,-18.2453 5.6602933,-18.181701 Z m 0.023437,0.269532 c 0.6633013,-0.06135 1.3393877,-0.03119 2.0273438,0.0918 h 0.00195 c 0.6955737,0.115288 1.2931307,0.30731 1.8007813,0.580078 h 0.00195 c 0.5089017,0.269418 0.7447897,0.569239 0.7714837,0.90625 l 0.01758,0.216797 0.185546,-0.109375 c 0.421532,-0.247506 0.776422,-0.425414 1.060547,-0.539063 h 0.002 v -0.002 c 0.272074,-0.117654 0.577849,-0.184317 0.908204,-0.207031 0.338395,-0.0188 0.768941,0.0085 1.287109,0.07813 0.854804,0.121547 1.657471,0.498669 2.414062,1.140625 h 0.002 c 0.766501,0.636195 1.3942,1.434533 1.886719,2.396484 h 0.002 c 0.499019,0.951973 0.782273,1.97934 0.84375,3.085937 0.06882,1.0935723 -0.15245,2.1503863 -0.673828,3.1816411 v 0.00195 c -0.127111,0.2609112 -0.386821,0.4451423 -0.832031,0.5527343 -0.451356,0.1013135 -0.943227,0.119524 -1.46875,0.058594 -0.516023,-0.060709 -0.944796,-0.1988485 -1.287109,-0.4160156 v -0.00195 h -0.002 c -0.338927,-0.2091243 -0.471436,-0.4426608 -0.451172,-0.75 v -0.011719 l -0.171875,-1.7265625 c -0.02482,-0.372196 -0.14391,-0.6899813 -0.359375,-0.9335933 -0.103162,-0.134522 -0.248187,-0.239451 -0.429688,-0.308594 h -0.002 c -0.17615,-0.06554 -0.361037,-0.113884 -0.556641,-0.146485 l -0.115234,-0.01758 h -0.002 c -0.839647,-0.08686 -1.514392,0.322466 -1.945313,1.1660159 -0.433624,0.8348285 -0.7413523,2.1814467 -0.9374993,4.0644531 -0.1676336,1.520024 -0.3282971,2.6426941 -0.4824219,3.359375 v 0.00195 c -0.154593,0.7227226 -0.3386567,1.27290129 -0.546875,1.64843755 l -0.00195,0.001953 v 0.001953 C 8.2494358,0.17109792 7.6456243,0.62651519 6.78125,0.83789063 H 6.7793 C 5.917132,1.0581789 5.0345474,1.0398337 4.1191406,0.77734375 3.43152,0.56222227 2.902677,0.29448234 2.5390625,-0.00976563 2.1814751,-0.30594848 1.9925265,-0.70874229 1.9628906,-1.2421875 c -0.011247,-0.446736 0.023967,-1.0812525 0.109375,-1.9003906 0.081975,-0.8197569 0.1954601,-1.9447463 0.34375,-3.3730469 v -0.00195 c 0.1562986,-1.4263646 0.3321487,-3.2279371 0.53125,-5.40625 v -0.002 c 0.093764,-0.976938 0.1600717,-1.822823 0.203125,-2.535157 0.038652,-0.711184 0.1310602,-1.310707 0.2753907,-1.796874 v -0.002 c 0.1374048,-0.475347 0.3889802,-0.844789 0.7656249,-1.132812 l 0.00195,-0.002 0.00195,-0.002 c 0.3353457,-0.277652 0.8263673,-0.45476 1.4882812,-0.515625 z"
                   id="path73493" /></g></g></g></g><g
           fill="#fd86c8"
           fill-opacity="1"
           id="g73407"
           style="fill:#fd8ee6;stroke-width:0.264771"
           transform="matrix(1.209058,-0.18418552,0.19273937,1.2184601,-19.391371,5.5758573)"><g
             transform="translate(54.736577,39.378035)"
             id="g73405"
             style="display:inline"><g
               id="g73403"><g
                 id="path73401"><path
                   style="color:#000000;stroke:none;-inkscape-stroke:none"
                   d="M 10.296875,1.046875 C 9.140625,1.109375 8.007812,1.023438 6.90625,0.796875 5.800781,0.578125 4.789062,0.128906 3.875,-0.546875 2.96875,-1.234375 2.210938,-2.238281 1.609375,-3.5625 1.015625,-4.894531 0.640625,-6.625 0.484375,-8.75 0.398438,-9.769531 0.335938,-11.1875 0.296875,-13 c -0.03125,-1.820312 -0.058594,-4.253906 -0.078125,-7.296875 0,-0.363281 -0.023438,-0.71875 -0.0625,-1.0625 -0.042969,-0.34375 -0.039062,-0.660156 0.015625,-0.953125 0.070313,-0.457031 0.253906,-0.832031 0.546875,-1.125 0.300781,-0.300781 0.65625,-0.515625 1.0625,-0.640625 0.4375,-0.144531 0.96875,-0.257813 1.59375,-0.34375 0.625,-0.09375 1.21875,-0.08203 1.78125,0.03125 0.5625,0.117187 0.972656,0.390625 1.234375,0.828125 0.21875,0.355469 0.332031,0.875 0.34375,1.5625 0.019531,0.679688 0.03125,1.5 0.03125,2.46875 0.03125,2.511719 0.066406,4.714844 0.109375,6.609375 0.050781,1.898437 0.171875,3.480469 0.359375,4.75 0.195313,1.261719 0.546875,2.199219 1.046875,2.8125 0.5,0.605469 1.226562,0.882813 2.1875,0.828125 0.363281,-0.019531 0.664062,0.152344 0.90625,0.515625 0.25,0.367187 0.414062,0.820313 0.5,1.359375 0.08203,0.53125 0.08594,1.078125 0.01563,1.640625 -0.07422,0.5625 -0.246094,1.0351562 -0.515625,1.421875 -0.273438,0.394531 -0.632812,0.609375 -1.078125,0.640625 z m 0,0"
                   id="path73497" /><path
                   style="color:#000000;fill:#000000;stroke:none;-inkscape-stroke:none"
                   d="m 3.3554688,-24.552734 c -0.6295841,0.08666 -1.1675066,0.201699 -1.6152344,0.349609 -0.4251713,0.131279 -0.80051314,0.357154 -1.1152344,0.671875 -0.31335508,0.313355 -0.51006001,0.718714 -0.58398438,1.199219 -0.0569823,0.307707 -0.05978212,0.635026 -0.01562499,0.988281 0.0385767,0.339479 0.06054687,0.689288 0.06054687,1.046875 0.01953316,3.043306 0.04686302,5.477818 0.078125,7.298828 0.0390965,1.814052 0.10115141,3.2353518 0.1875,4.2597657 0.1571008,2.1341656 0.53426458,3.8789107 1.1367187,5.2304688 0.6084577,1.3393962 1.3792644,2.3628794 2.3066407,3.06640625 l 0.00195,0.001953 C 4.7254422,0.24705179 5.7553645,0.70318635 6.8789062,0.92578125 7.9915391,1.1546212 9.1372542,1.242792 10.304688,1.1796875 h 0.002 c 0.482618,-0.033868 0.886179,-0.27659376 1.177734,-0.69726562 0.283369,-0.40657268 0.46068,-0.90122643 0.537109,-1.48046876 V -1 c 0.0717,-0.5735776 0.0684,-1.1316174 -0.01563,-1.6757813 v -0.00195 C 11.917613,-3.2312741 11.747726,-3.7030478 11.484375,-4.0898437 11.224816,-4.4791816 10.869705,-4.686039 10.460938,-4.6640625 9.5298197,-4.6110716 8.857257,-4.8720231 8.3847656,-5.4433594 7.907314,-6.0289834 7.5583898,-6.9436249 7.3652344,-8.1914063 7.1788535,-9.4533601 7.0584956,-11.031004 7.0078125,-12.925781 c -0.042941,-1.89328 -0.078135,-4.094949 -0.109375,-6.605469 0,-0.969051 -0.011703,-1.789795 -0.03125,-2.470703 v -0.002 c -0.012151,-0.698937 -0.1258765,-1.240356 -0.3632813,-1.626953 -0.2805251,-0.468937 -0.7301384,-0.76572 -1.3203125,-0.888672 h -0.00195 c -0.5778236,-0.116366 -1.1861997,-0.128686 -1.8242187,-0.0332 z m 0.037109,0.261718 h 0.00195 c 0.6105475,-0.09158 1.1883629,-0.08043 1.7343749,0.0293 0.5348249,0.111422 0.9055252,0.361516 1.1484375,0.767578 v 0.002 c 0.1992665,0.323808 0.3127282,0.82004 0.3242188,1.49414 v 0.002 c 0.019487,0.67815 0.03125,1.497163 0.03125,2.464844 v 0.002 c 0.031253,2.511989 0.06639,4.71611 0.109375,6.611328 0.050879,1.902094 0.1727094,3.4885197 0.3613281,4.7656252 0.1974702,1.2756541 0.5516714,2.2360164 1.0742188,2.8769532 h 0.00195 c 0.5274552,0.6387155 1.3068093,0.9332988 2.2968751,0.8769531 0.317793,-0.017086 0.564246,0.1198078 0.789062,0.4570312 0.236649,0.3475774 0.394886,0.7820575 0.478516,1.3066407 0.07975,0.5177432 0.08447,1.0527651 0.01563,1.6035156 -0.07216,0.54482548 -0.238772,0.99492854 -0.494141,1.36132813 C 11.01068,0.6979259 10.696196,0.88500724 10.289063,0.9140625 9.1439981,0.97595787 8.0240827,0.8922543 6.9335937,0.66796875 h -0.00195 C 5.8458002,0.45310284 4.8535777,0.0114683 3.9550781,-0.65234375 l -0.00195,-0.001953 C 3.0688622,-1.3257346 2.3246972,-2.3091141 1.7304687,-3.6171875 1.1456389,-4.9292068 0.77268681,-6.644975 0.6171875,-8.7597656 v -0.00195 c -0.0855252,-1.0146459 -0.14847053,-2.4292904 -0.1875,-4.2402344 -0.031238,-1.819611 -0.0585962,-4.252296 -0.078125,-7.294922 0,-0.368975 -0.0249059,-0.730105 -0.0644531,-1.078125 -0.0416063,-0.332848 -0.0361158,-0.636877 0.015625,-0.914062 v -0.002 -0.002 c 0.0667015,-0.433556 0.23718328,-0.778199 0.50976562,-1.050781 0.28619198,-0.286192 0.62156848,-0.488578 1.00781248,-0.607422 h 0.00195 v -0.002 C 2.2490167,-24.094243 2.7731,-24.205975 3.392575,-24.291153 Z"
                   id="path73499" /></g></g></g></g></g></g></g></svg>
